<svg width="317" height="56" viewBox="0 0 317 56" fill="none" xmlns="http://www.w3.org/2000/svg">
<path d="M21.5455 55.8523C17.0758 55.8523 13.2311 54.9053 10.0114 53.0114C6.81061 51.0985 4.34848 48.447 2.625 45.0568C0.920455 41.6667 0.0681819 37.7652 0.0681819 33.3523C0.0681819 28.8826 0.929924 24.9621 2.65341 21.5909C4.39583 18.2008 6.86742 15.5587 10.0682 13.6648C13.2689 11.7519 17.0758 10.7955 21.4886 10.7955C25.2955 10.7955 28.6288 11.4867 31.4886 12.8693C34.3485 14.2519 36.6117 16.1932 38.2784 18.6932C39.9451 21.1932 40.8636 24.1288 41.0341 27.5H29.6136C29.2917 25.322 28.4394 23.5701 27.0568 22.2443C25.6932 20.8996 23.9034 20.2273 21.6875 20.2273C19.8125 20.2273 18.1742 20.7386 16.7727 21.7614C15.3902 22.7652 14.3106 24.233 13.5341 26.1648C12.7576 28.0966 12.3693 30.4356 12.3693 33.1818C12.3693 35.9659 12.7481 38.3333 13.5057 40.2841C14.2822 42.2348 15.3712 43.7216 16.7727 44.7443C18.1742 45.767 19.8125 46.2784 21.6875 46.2784C23.0701 46.2784 24.3106 45.9943 25.4091 45.4261C26.5265 44.858 27.4451 44.0341 28.1648 42.9545C28.9034 41.8561 29.3864 40.5398 29.6136 39.0057H41.0341C40.8447 42.339 39.9356 45.2746 38.3068 47.8125C36.697 50.3314 34.4716 52.3011 31.6307 53.7216C28.7898 55.142 25.428 55.8523 21.5455 55.8523ZM68.4986 55.8523C64.0857 55.8523 60.2694 54.9148 57.0497 53.0398C53.849 51.1458 51.3774 48.5133 49.6349 45.142C47.8925 41.7519 47.0213 37.822 47.0213 33.3523C47.0213 28.8447 47.8925 24.9053 49.6349 21.5341C51.3774 18.1439 53.849 15.5114 57.0497 13.6364C60.2694 11.7424 64.0857 10.7955 68.4986 10.7955C72.9115 10.7955 76.7183 11.7424 79.919 13.6364C83.1387 15.5114 85.6198 18.1439 87.3622 21.5341C89.1046 24.9053 89.9759 28.8447 89.9759 33.3523C89.9759 37.822 89.1046 41.7519 87.3622 45.142C85.6198 48.5133 83.1387 51.1458 79.919 53.0398C76.7183 54.9148 72.9115 55.8523 68.4986 55.8523ZM68.5554 46.4773C70.563 46.4773 72.2391 45.9091 73.5838 44.7727C74.9285 43.6174 75.9418 42.0455 76.6236 40.0568C77.3243 38.0682 77.6747 35.8049 77.6747 33.267C77.6747 30.7292 77.3243 28.4659 76.6236 26.4773C75.9418 24.4886 74.9285 22.9167 73.5838 21.7614C72.2391 20.6061 70.563 20.0284 68.5554 20.0284C66.5289 20.0284 64.8243 20.6061 63.4418 21.7614C62.0781 22.9167 61.0459 24.4886 60.3452 26.4773C59.6634 28.4659 59.3224 30.7292 59.3224 33.267C59.3224 35.8049 59.6634 38.0682 60.3452 40.0568C61.0459 42.0455 62.0781 43.6174 63.4418 44.7727C64.8243 45.9091 66.5289 46.4773 68.5554 46.4773ZM109.947 29.7727V55H97.8452V11.3636H109.379V19.0625H109.891C110.857 16.5246 112.476 14.517 114.749 13.0398C117.021 11.5436 119.777 10.7955 123.016 10.7955C126.046 10.7955 128.688 11.4583 130.942 12.7841C133.196 14.1098 134.947 16.0038 136.197 18.4659C137.447 20.9091 138.072 23.8258 138.072 27.2159V55H125.97V29.375C125.989 26.7045 125.307 24.6212 123.925 23.125C122.542 21.6098 120.639 20.8523 118.214 20.8523C116.586 20.8523 115.146 21.2027 113.896 21.9034C112.665 22.6042 111.699 23.6269 110.999 24.9716C110.317 26.2973 109.966 27.8977 109.947 29.7727ZM159.713 29.7727V55H147.611V11.3636H159.145V19.0625H159.656C160.622 16.5246 162.241 14.517 164.514 13.0398C166.787 11.5436 169.543 10.7955 172.781 10.7955C175.812 10.7955 178.454 11.4583 180.707 12.7841C182.961 14.1098 184.713 16.0038 185.963 18.4659C187.213 20.9091 187.838 23.8258 187.838 27.2159V55H175.736V29.375C175.755 26.7045 175.073 24.6212 173.69 23.125C172.308 21.6098 170.404 20.8523 167.98 20.8523C166.351 20.8523 164.912 21.2027 163.662 21.9034C162.431 22.6042 161.465 23.6269 160.764 24.9716C160.082 26.2973 159.732 27.8977 159.713 29.7727ZM217.263 55.8523C212.774 55.8523 208.911 54.9432 205.672 53.125C202.452 51.2879 199.971 48.6932 198.229 45.3409C196.486 41.9697 195.615 37.983 195.615 33.3807C195.615 28.892 196.486 24.9527 198.229 21.5625C199.971 18.1723 202.424 15.5303 205.587 13.6364C208.768 11.7424 212.5 10.7955 216.78 10.7955C219.659 10.7955 222.339 11.2595 224.82 12.1875C227.32 13.0966 229.498 14.4697 231.354 16.3068C233.229 18.1439 234.687 20.4545 235.729 23.2386C236.77 26.0038 237.291 29.2424 237.291 32.9545V36.2784H200.445V28.7784H225.899C225.899 27.036 225.52 25.4924 224.763 24.1477C224.005 22.803 222.954 21.7519 221.609 20.9943C220.284 20.2178 218.74 19.8295 216.979 19.8295C215.142 19.8295 213.513 20.2557 212.092 21.108C210.691 21.9413 209.592 23.0682 208.797 24.4886C208.001 25.8902 207.594 27.4527 207.575 29.1761V36.3068C207.575 38.4659 207.973 40.3314 208.768 41.9034C209.583 43.4754 210.729 44.6875 212.206 45.5398C213.683 46.392 215.435 46.8182 217.462 46.8182C218.806 46.8182 220.037 46.6288 221.155 46.25C222.272 45.8712 223.229 45.303 224.024 44.5455C224.82 43.7879 225.426 42.8598 225.842 41.7614L237.036 42.5C236.467 45.1894 235.303 47.5379 233.541 49.5455C231.799 51.5341 229.545 53.0871 226.78 54.2045C224.034 55.303 220.861 55.8523 217.263 55.8523ZM264.905 55.8523C260.435 55.8523 256.59 54.9053 253.371 53.0114C250.17 51.0985 247.708 48.447 245.984 45.0568C244.28 41.6667 243.428 37.7652 243.428 33.3523C243.428 28.8826 244.289 24.9621 246.013 21.5909C247.755 18.2008 250.227 15.5587 253.428 13.6648C256.628 11.7519 260.435 10.7955 264.848 10.7955C268.655 10.7955 271.988 11.4867 274.848 12.8693C277.708 14.2519 279.971 16.1932 281.638 18.6932C283.304 21.1932 284.223 24.1288 284.393 27.5H272.973C272.651 25.322 271.799 23.5701 270.416 22.2443C269.053 20.8996 267.263 20.2273 265.047 20.2273C263.172 20.2273 261.534 20.7386 260.132 21.7614C258.75 22.7652 257.67 24.233 256.893 26.1648C256.117 28.0966 255.729 30.4356 255.729 33.1818C255.729 35.9659 256.107 38.3333 256.865 40.2841C257.642 42.2348 258.731 43.7216 260.132 44.7443C261.534 45.767 263.172 46.2784 265.047 46.2784C266.429 46.2784 267.67 45.9943 268.768 45.4261C269.886 44.858 270.804 44.0341 271.524 42.9545C272.263 41.8561 272.746 40.5398 272.973 39.0057H284.393C284.204 42.339 283.295 45.2746 281.666 47.8125C280.056 50.3314 277.831 52.3011 274.99 53.7216C272.149 55.142 268.787 55.8523 264.905 55.8523ZM315.352 11.3636V20.4545H289.074V11.3636H315.352ZM295.04 0.90909H307.142V41.5909C307.142 42.7083 307.313 43.5795 307.653 44.2045C307.994 44.8106 308.468 45.2367 309.074 45.483C309.699 45.7292 310.419 45.8523 311.233 45.8523C311.801 45.8523 312.369 45.8049 312.938 45.7102C313.506 45.5966 313.941 45.5114 314.244 45.4545L316.148 54.4602C315.542 54.6496 314.689 54.8674 313.591 55.1136C312.492 55.3788 311.157 55.5398 309.585 55.5966C306.669 55.7102 304.112 55.322 301.915 54.4318C299.737 53.5417 298.042 52.1591 296.83 50.2841C295.617 48.4091 295.021 46.0417 295.04 43.1818V0.90909Z" fill="black"/>
</svg>
