<svg width="407" height="122" viewBox="0 0 407 122" fill="none" xmlns="http://www.w3.org/2000/svg">
<path fill-rule="evenodd" clip-rule="evenodd" d="M343.001 90.5C341.89 90.0132 345.017 68.1576 344.501 67C343.986 65.8424 352.62 58.6191 353.001 57.4678L369.5 47L327.508 66.3784C317.996 70.6135 307.029 70.533 297.021 66.1547C287.012 61.7764 311.644 74.427 307.001 64C302.359 53.5731 298.058 68.4828 301.501 58.1152C304.945 47.7476 301.181 67.2351 310.693 63L310.571 62.27C312.547 74.5771 300.389 67.2731 301.501 67.7595C323.001 61.5 302.614 68.246 301.501 67.7595C314.501 66.3784 308.107 62.4309 307.724 63.5829C307.341 64.7348 307.157 61.7995 306.1 62.2701L309.447 70.4492C302.049 73.7432 302.584 55.9364 299.906 64.0001C297.228 72.0637 307.082 54.8902 310.693 63C314.304 71.1099 292.121 54.0624 299.906 57.4678C307.69 60.8731 316.22 60.9358 323.618 57.6418L366.002 38.5L348.001 44.5C346.663 44.5 335.487 45.6398 335.001 44.5001C334.516 43.3603 314.626 30.4067 315 29.2813C315.374 28.1558 354.976 27.4797 356 27.0001C363 27.0001 364.5 27.0001 366.002 27.0001L390.766 29.2813C391.877 29.7681 392.79 30.6917 393.306 31.8493C393.821 33.0069 393.896 34.3038 393.515 35.4551L377.001 54C376.618 55.1508 370.556 61.7999 369.5 62.2701C368.444 62.7402 344.113 90.9854 343.001 90.5Z" fill="black"/>
<path d="M24.5455 103.852C20.0758 103.852 16.2311 102.905 13.0114 101.011C9.81061 99.0985 7.34848 96.447 5.625 93.0568C3.92045 89.6667 3.06818 85.7652 3.06818 81.3523C3.06818 76.8826 3.92992 72.9621 5.65341 69.5909C7.39583 66.2008 9.86742 63.5587 13.0682 61.6648C16.2689 59.7519 20.0758 58.7955 24.4886 58.7955C28.2955 58.7955 31.6288 59.4867 34.4886 60.8693C37.3485 62.2519 39.6117 64.1932 41.2784 66.6932C42.9451 69.1932 43.8636 72.1288 44.0341 75.5H32.6136C32.2917 73.322 31.4394 71.5701 30.0568 70.2443C28.6932 68.8996 26.9034 68.2273 24.6875 68.2273C22.8125 68.2273 21.1742 68.7386 19.7727 69.7614C18.3902 70.7652 17.3106 72.233 16.5341 74.1648C15.7576 76.0966 15.3693 78.4356 15.3693 81.1818C15.3693 83.9659 15.7481 86.3333 16.5057 88.2841C17.2822 90.2348 18.3712 91.7216 19.7727 92.7443C21.1742 93.767 22.8125 94.2784 24.6875 94.2784C26.0701 94.2784 27.3106 93.9943 28.4091 93.4261C29.5265 92.858 30.4451 92.0341 31.1648 90.9545C31.9034 89.8561 32.3864 88.5398 32.6136 87.0057H44.0341C43.8447 90.339 42.9356 93.2746 41.3068 95.8125C39.697 98.3314 37.4716 100.301 34.6307 101.722C31.7898 103.142 28.428 103.852 24.5455 103.852ZM71.4986 103.852C67.0857 103.852 63.2694 102.915 60.0497 101.04C56.849 99.1458 54.3774 96.5133 52.6349 93.142C50.8925 89.7519 50.0213 85.822 50.0213 81.3523C50.0213 76.8447 50.8925 72.9053 52.6349 69.5341C54.3774 66.1439 56.849 63.5114 60.0497 61.6364C63.2694 59.7424 67.0857 58.7955 71.4986 58.7955C75.9115 58.7955 79.7183 59.7424 82.919 61.6364C86.1387 63.5114 88.6198 66.1439 90.3622 69.5341C92.1046 72.9053 92.9759 76.8447 92.9759 81.3523C92.9759 85.822 92.1046 89.7519 90.3622 93.142C88.6198 96.5133 86.1387 99.1458 82.919 101.04C79.7183 102.915 75.9115 103.852 71.4986 103.852ZM71.5554 94.4773C73.563 94.4773 75.2391 93.9091 76.5838 92.7727C77.9285 91.6174 78.9418 90.0455 79.6236 88.0568C80.3243 86.0682 80.6747 83.8049 80.6747 81.267C80.6747 78.7292 80.3243 76.4659 79.6236 74.4773C78.9418 72.4886 77.9285 70.9167 76.5838 69.7614C75.2391 68.6061 73.563 68.0284 71.5554 68.0284C69.5289 68.0284 67.8243 68.6061 66.4418 69.7614C65.0781 70.9167 64.0459 72.4886 63.3452 74.4773C62.6634 76.4659 62.3224 78.7292 62.3224 81.267C62.3224 83.8049 62.6634 86.0682 63.3452 88.0568C64.0459 90.0455 65.0781 91.6174 66.4418 92.7727C67.8243 93.9091 69.5289 94.4773 71.5554 94.4773ZM112.947 77.7727V103H100.845V59.3636H112.379V67.0625H112.891C113.857 64.5246 115.476 62.517 117.749 61.0398C120.021 59.5436 122.777 58.7955 126.016 58.7955C129.046 58.7955 131.688 59.4583 133.942 60.7841C136.196 62.1098 137.947 64.0038 139.197 66.4659C140.447 68.9091 141.072 71.8258 141.072 75.2159V103H128.97V77.375C128.989 74.7045 128.307 72.6212 126.925 71.125C125.542 69.6098 123.639 68.8523 121.214 68.8523C119.586 68.8523 118.146 69.2027 116.896 69.9034C115.665 70.6042 114.699 71.6269 113.999 72.9716C113.317 74.2973 112.966 75.8977 112.947 77.7727ZM162.713 77.7727V103H150.611V59.3636H162.145V67.0625H162.656C163.622 64.5246 165.241 62.517 167.514 61.0398C169.787 59.5436 172.543 58.7955 175.781 58.7955C178.812 58.7955 181.454 59.4583 183.707 60.7841C185.961 62.1098 187.713 64.0038 188.963 66.4659C190.213 68.9091 190.838 71.8258 190.838 75.2159V103H178.736V77.375C178.755 74.7045 178.073 72.6212 176.69 71.125C175.308 69.6098 173.404 68.8523 170.98 68.8523C169.351 68.8523 167.912 69.2027 166.662 69.9034C165.431 70.6042 164.465 71.6269 163.764 72.9716C163.082 74.2973 162.732 75.8977 162.713 77.7727ZM220.263 103.852C215.774 103.852 211.911 102.943 208.672 101.125C205.452 99.2879 202.971 96.6932 201.229 93.3409C199.486 89.9697 198.615 85.983 198.615 81.3807C198.615 76.892 199.486 72.9527 201.229 69.5625C202.971 66.1723 205.424 63.5303 208.587 61.6364C211.768 59.7424 215.5 58.7955 219.78 58.7955C222.659 58.7955 225.339 59.2595 227.82 60.1875C230.32 61.0966 232.498 62.4697 234.354 64.3068C236.229 66.1439 237.687 68.4545 238.729 71.2386C239.77 74.0038 240.291 77.2424 240.291 80.9545V84.2784H203.445V76.7784H228.899C228.899 75.036 228.52 73.4924 227.763 72.1477C227.005 70.803 225.954 69.7519 224.609 68.9943C223.284 68.2178 221.74 67.8295 219.979 67.8295C218.142 67.8295 216.513 68.2557 215.092 69.108C213.691 69.9413 212.592 71.0682 211.797 72.4886C211.001 73.8902 210.594 75.4527 210.575 77.1761V84.3068C210.575 86.4659 210.973 88.3314 211.768 89.9034C212.583 91.4754 213.729 92.6875 215.206 93.5398C216.683 94.392 218.435 94.8182 220.462 94.8182C221.806 94.8182 223.037 94.6288 224.155 94.25C225.272 93.8712 226.229 93.303 227.024 92.5455C227.82 91.7879 228.426 90.8598 228.842 89.7614L240.036 90.5C239.467 93.1894 238.303 95.5379 236.541 97.5455C234.799 99.5341 232.545 101.087 229.78 102.205C227.034 103.303 223.861 103.852 220.263 103.852ZM267.905 103.852C263.435 103.852 259.59 102.905 256.371 101.011C253.17 99.0985 250.708 96.447 248.984 93.0568C247.28 89.6667 246.428 85.7652 246.428 81.3523C246.428 76.8826 247.289 72.9621 249.013 69.5909C250.755 66.2008 253.227 63.5587 256.428 61.6648C259.628 59.7519 263.435 58.7955 267.848 58.7955C271.655 58.7955 274.988 59.4867 277.848 60.8693C280.708 62.2519 282.971 64.1932 284.638 66.6932C286.304 69.1932 287.223 72.1288 287.393 75.5H275.973C275.651 73.322 274.799 71.5701 273.416 70.2443C272.053 68.8996 270.263 68.2273 268.047 68.2273C266.172 68.2273 264.534 68.7386 263.132 69.7614C261.75 70.7652 260.67 72.233 259.893 74.1648C259.117 76.0966 258.729 78.4356 258.729 81.1818C258.729 83.9659 259.107 86.3333 259.865 88.2841C260.642 90.2348 261.731 91.7216 263.132 92.7443C264.534 93.767 266.172 94.2784 268.047 94.2784C269.429 94.2784 270.67 93.9943 271.768 93.4261C272.886 92.858 273.804 92.0341 274.524 90.9545C275.263 89.8561 275.746 88.5398 275.973 87.0057H287.393C287.204 90.339 286.295 93.2746 284.666 95.8125C283.056 98.3314 280.831 100.301 277.99 101.722C275.149 103.142 271.787 103.852 267.905 103.852ZM318.352 59.3636V68.4545H292.074V59.3636H318.352ZM298.04 48.9091H310.142V89.5909C310.142 90.7083 310.313 91.5795 310.653 92.2045C310.994 92.8106 311.468 93.2367 312.074 93.483C312.699 93.7292 313.419 93.8523 314.233 93.8523C314.801 93.8523 315.369 93.8049 315.938 93.7102C316.506 93.5966 316.941 93.5114 317.244 93.4545L319.148 102.46C318.542 102.65 317.689 102.867 316.591 103.114C315.492 103.379 314.157 103.54 312.585 103.597C309.669 103.71 307.112 103.322 304.915 102.432C302.737 101.542 301.042 100.159 299.83 98.2841C298.617 96.4091 298.021 94.0417 298.04 91.1818V48.9091Z" fill="black"/>
</svg>
